# xmcd
#
# Track frame offsets: 
#        150
#        22800
#        51560
#        70527
#
# Disc length: 1309 seconds
#
# Revision: 0
# Processed by: cddbd v1.5.2PL0 Copyright (c) Steve Scherf et al.
# Submitted via: ExactAudioCopy v1.0b3
#
DISCID=2b051b04
DTITLE=Sound Of Seduction - Welcome (Remixes)
DYEAR=1900
DGENRE=
TTITLE0=Welcome (Cutfather and Joe's Disco Mix)
TTITLE1=Welcome (Cutfather and Joe's Star Wars Dub)
TTITLE2=Welcome (Radio Version)
TTITLE3=Welcome (Apocalypse Version)
EXTD=
EXTT0=
EXTT1=
EXTT2=
EXTT3=
PLAYORDER=
